<?xml version="1.0" standalone="no"?>
<!DOCTYPE svg PUBLIC "-//W3C//DTD SVG 20010904//EN"
 "http://www.w3.org/TR/2001/REC-SVG-20010904/DTD/svg10.dtd">
<svg version="1.0" xmlns="http://www.w3.org/2000/svg"
 width="107.000000pt" height="211.000000pt" viewBox="0 0 107.000000 211.000000"
 preserveAspectRatio="xMidYMid meet">

<g transform="translate(0.000000,211.000000) scale(0.100000,-0.100000)"
fill="#000000" stroke="none">
<path d="M504 2085 c-3 -8 -4 -20 -1 -27 2 -7 -2 -21 -10 -30 -12 -13 -13 -24
-5 -47 8 -22 8 -32 0 -37 -7 -5 -8 -2 -3 6 6 9 4 11 -5 5 -8 -5 -10 -20 -7
-41 4 -26 2 -34 -9 -34 -22 0 -86 -35 -107 -58 -19 -20 -19 -20 -52 -1 l-34
20 -11 -20 c-6 -12 -18 -21 -26 -21 -8 0 -12 5 -9 10 3 6 1 10 -5 10 -21 0
-24 -33 -4 -47 45 -32 117 -110 135 -144 10 -21 23 -57 28 -80 8 -36 7 -47 -7
-62 -16 -17 -15 -19 1 -28 24 -14 21 -27 -8 -41 -28 -13 -33 -36 -10 -44 41
-16 3 -56 -75 -79 -35 -10 -50 -24 -50 -46 0 -22 14 -31 60 -39 26 -4 35 -10
35 -25 0 -11 8 -21 17 -23 11 -2 15 -9 11 -19 -4 -9 5 -23 22 -37 27 -22 27
-23 26 -136 -1 -238 -48 -350 -183 -437 -55 -36 -67 -47 -58 -58 7 -8 9 -19 6
-24 -4 -5 1 -14 10 -19 26 -14 13 -46 -23 -56 -47 -14 -50 -34 -8 -52 19 -8
35 -18 35 -23 0 -13 -31 -37 -80 -61 -80 -40 -98 -71 -66 -115 12 -17 12 -21
-6 -33 -14 -10 -18 -23 -16 -50 l3 -37 514 -3 c405 -2 516 0 523 10 13 22 9
57 -10 76 -16 16 -17 22 -5 37 31 44 13 75 -67 115 -49 25 -80 48 -80 62 0 5
13 14 30 19 40 15 39 42 -2 54 -35 11 -50 42 -26 56 7 4 14 21 13 37 0 25 -10
36 -65 73 -73 50 -111 99 -140 181 -26 75 -44 233 -35 314 6 57 10 66 32 75
19 7 24 15 20 29 -3 13 0 20 10 20 9 0 13 8 11 22 -3 20 3 24 40 29 44 6 64
22 59 49 -1 8 -31 27 -67 41 -69 27 -85 50 -53 75 17 13 17 15 -12 39 -30 25
-30 26 -10 41 20 15 20 16 1 29 -15 12 -17 22 -12 57 13 79 77 169 165 230 20
15 22 20 11 33 -7 8 -21 13 -30 10 -9 -3 -23 1 -29 9 -11 13 -16 12 -43 -4
l-31 -19 -40 34 c-22 19 -55 38 -74 41 -37 7 -37 7 -21 33 9 15 8 24 -4 43
-10 16 -13 30 -8 39 6 9 4 22 -5 36 -8 12 -12 29 -8 38 3 10 0 21 -8 26 -21
13 -49 11 -55 -6z m-64 -229 c0 -2 -7 -7 -16 -10 -8 -3 -12 -2 -9 4 6 10 25
14 25 6z m-135 -46 c3 -5 2 -10 -4 -10 -5 0 -13 5 -16 10 -3 6 -2 10 4 10 5 0
13 -4 16 -10z m155 -16 l25 -15 -25 7 c-14 3 -29 10 -34 15 -16 14 6 10 34 -7z
m-69 -139 c10 -27 17 -61 18 -75 0 -18 -4 -13 -14 17 -7 24 -22 59 -34 79 -18
31 -19 35 -4 32 9 -2 24 -24 34 -53z m37 -182 c-10 -2 -26 -2 -35 0 -10 3 -2
5 17 5 19 0 27 -2 18 -5z m60 -220 c-42 -2 -114 -2 -160 0 -46 1 -11 3 77 3
88 0 125 -2 83 -3z m-91 -119 c-3 -3 -12 -4 -19 -1 -8 3 -5 6 6 6 11 1 17 -2
13 -5z m40 -321 c-4 -90 -13 -175 -24 -218 l-18 -70 -54 -3 -54 -3 16 23 c77
106 115 210 124 336 10 136 16 92 10 -65z m-145 -330 c-23 -2 -61 -2 -85 0
-23 2 -4 4 43 4 47 0 66 -2 42 -4z m-49 -30 c-13 -2 -33 -2 -45 0 -13 2 -3 4
22 4 25 0 35 -2 23 -4z m-38 -103 c-3 -5 -19 -10 -36 -10 -16 0 -29 5 -29 10
0 6 16 10 36 10 21 0 33 -4 29 -10z m48 3 c-7 -2 -19 -2 -25 0 -7 3 -2 5 12 5
14 0 19 -2 13 -5z m495 -178 c-7 -7 -679 -36 -689 -29 -5 3 -9 12 -9 20 0 12
52 14 352 14 193 0 349 -2 346 -5z m-343 -95 c282 -4 286 -4 125 -10 -245 -11
-490 -11 -490 -2 0 16 11 20 43 18 18 -2 162 -5 322 -6z"/>
</g>
</svg>
